<?xml version="1.0" encoding="UTF-8"?><svg id="Layer_1" xmlns="http://www.w3.org/2000/svg" viewBox="0 0 150 50"><defs><style>.cls-1{font-family:AzoSans-Medium, 'Azo Sans';font-size:31px;}.cls-1,.cls-2{fill:snow;}.cls-3{fill:#93278f;}</style></defs><path class="cls-3" d="M0,0H138c6.62,0,12,5.38,12,12V50H12c-6.62,0-12-5.38-12-12V0H0Z"/><g><g><path class="cls-2" d="M9.59,29.09c.08-.58,.11-1.17,.18-1.75,.14-1.16,.35-2.3,.6-3.44,.38-1.73,.86-3.43,1.55-5.06,.77-1.82,1.76-3.5,3.26-4.81,1.07-.94,2.33-1.42,3.76-1.47,1.82-.06,3.55,.43,5.29,.85,1.28,.31,2.55,.62,3.86,.77,.81,.09,1.62-.07,2.41-.25,1.71-.38,3.41-.82,5.13-1.18,1.75-.36,3.49-.41,5.13,.48,1.07,.58,1.9,1.42,2.61,2.39,1.38,1.88,2.17,4.03,2.82,6.24,.44,1.5,.76,3.02,1,4.56,.12,.77,.21,1.55,.27,2.34,.08,1.07,.08,2.14,.04,3.21-.05,1.43-.26,2.84-1.09,4.07-.64,.95-1.53,1.43-2.7,1.45-1.39,.03-2.59-.5-3.74-1.19-1.32-.79-2.52-1.74-3.67-2.76-.58-.51-1.13-1.05-1.8-1.46-1.01-.63-2.12-.95-3.27-1.18-1.1-.22-2.22-.27-3.34-.22-1.68,.06-3.32,.38-4.84,1.13-.63,.31-1.18,.75-1.7,1.22-1.5,1.39-3.08,2.67-4.89,3.65-1.2,.65-2.48,1.02-3.86,.74-.81-.17-1.42-.64-1.9-1.3-.6-.81-.81-1.75-1-2.7-.07-.35-.02-.71-.11-1.06v-3.26Zm1.8,1.71c-.02,.45,.06,.88,.07,1.33,.02,.72,.16,1.41,.38,2.09,.34,1.04,1.08,1.52,2.07,1.35,.58-.1,1.14-.31,1.66-.59,1.54-.82,2.88-1.92,4.16-3.08,.72-.65,1.46-1.28,2.34-1.71,1.96-.97,4.06-1.36,6.23-1.4,1.23-.03,2.45,.1,3.65,.37,1.69,.37,3.26,1.01,4.57,2.18,.97,.87,1.93,1.75,2.98,2.52,.94,.69,1.92,1.34,3.05,1.67,.73,.22,1.5,.35,2.1-.3,.47-.5,.67-1.15,.78-1.8,.23-1.28,.29-2.58,.17-3.89-.09-1.1-.21-2.2-.39-3.28-.34-2.04-.79-4.05-1.55-5.97-.69-1.75-1.49-3.43-2.97-4.68-.54-.46-1.15-.8-1.84-.98-1.08-.27-2.17-.17-3.25,.04-1.64,.32-3.24,.81-4.88,1.11-1.15,.21-2.31,.34-3.48,.17-1.43-.21-2.83-.58-4.24-.92-1.26-.31-2.51-.63-3.83-.57-1.32,.07-2.4,.62-3.29,1.52-.96,.97-1.63,2.15-2.16,3.41-.83,1.99-1.42,4.05-1.82,6.17-.32,1.74-.49,3.5-.56,5.26Z"/><path class="cls-2" d="M19.74,27.78c-1.21,.15-2.59-1.02-2.72-2.16-.02-.17-.09-.33-.34-.36-1.31-.18-2.3-1.48-2.26-2.8,.04-1.38,.97-2.39,2.28-2.7,.21-.05,.29-.15,.33-.33,.23-1.09,.92-1.77,1.95-2.09,1.04-.32,1.97-.03,2.76,.69,.37,.34,.66,.78,.73,1.29,.04,.31,.19,.41,.45,.48,1.06,.28,1.76,.95,2.04,2.01,.41,1.55-.56,3.18-2.13,3.45-.22,.04-.29,.16-.33,.34-.25,1.23-1.45,2.29-2.76,2.18Zm3.5-5.29c0-.33-.3-.71-.63-.84-.32-.13-.66-.08-.99-.08-.49-.01-.76-.24-.9-.71-.09-.3-.05-.61-.07-.92-.02-.47-.39-.85-.83-.89-.48-.04-.87,.29-.97,.77-.06,.28-.07,.56-.07,.84,0,.54-.35,.89-.9,.9-.28,0-.56-.02-.84,.06-.48,.14-.81,.52-.77,.94,.05,.46,.46,.8,.98,.8,.14,0,.27,0,.41,0,.74,.07,1.21,.34,1.12,1.17-.02,.21,.03,.41,.07,.62,.09,.46,.51,.83,.92,.8,.51-.04,.87-.41,.88-.92,0-.2,0-.39,0-.59,.02-.5,.29-.81,.77-.95,.31-.09,.61-.04,.92-.05,.6-.03,.84-.47,.9-.94Z"/><path class="cls-2" d="M36.75,17.44c1.08,.07,1.74,.73,1.71,1.73-.03,1.07-.63,1.68-1.7,1.7-.99,.02-1.68-.64-1.72-1.68-.04-.95,.77-1.74,1.71-1.75Z"/><path class="cls-2" d="M41.82,22.51c0,1-.73,1.73-1.73,1.71-.97-.02-1.68-.65-1.69-1.72,0-.95,.69-1.69,1.68-1.7,1.04,0,1.71,.69,1.74,1.71Z"/><path class="cls-2" d="M35.08,22.56c0,.97-.71,1.67-1.67,1.67-.98,0-1.72-.73-1.71-1.69,.02-.98,.61-1.71,1.71-1.73,.97-.02,1.76,.79,1.67,1.75Z"/><path class="cls-2" d="M36.75,24.17c.95,0,1.73,.74,1.73,1.68,0,.96-.82,1.76-1.74,1.71-.94-.04-1.72-.78-1.71-1.71,0-.95,.75-1.68,1.72-1.68Z"/></g><text class="cls-1" transform="translate(53.78 36.67)"><tspan x="0" y="0">Game</tspan></text></g></svg>