<?xml version="1.0" encoding="UTF-8"?><svg id="Layer_1" xmlns="http://www.w3.org/2000/svg" viewBox="0 0 136.42 36"><defs><style>.cls-1{fill:#f7931e;}</style></defs><path d="M4.22,0l.19,.19V14.06c0,5.58,3.31,8.47,7.37,8.47s7.33-2.89,7.33-8.47V.19l.19-.19h4.07l.19,.19V14.82c0,7.79-5.32,12.35-11.78,12.35S0,22.61,0,14.82V.19L.19,0H4.22Z"/><path d="M31.21,8.74l.19,.19v.57c1.18-.76,2.85-1.33,4.56-1.33,5.32,0,9.35,4.22,9.35,9.5s-4.03,9.5-9.35,9.5c-1.71,0-3.38-.57-4.56-1.33v9.31l-.19,.19h-4.03l-.19-.19V8.93l.19-.19h4.03Zm.19,12.12c1.25,1.48,2.77,2.05,4.41,2.05,2.85,0,4.98-2.24,4.98-5.24s-2.13-5.24-4.98-5.24c-1.63,0-3.15,.76-4.41,2.05v6.38Z"/><path d="M53.2,0l.38,.19,14.63,19.07V.19l.19-.19h4.07l.19,.19V26.41l-.19,.19h-4.25l-.38-.19L53.2,7.34V26.41l-.19,.19h-4.03l-.19-.19V.19l.19-.19h4.22Z"/><path d="M92.31,24.93c-1.71,1.14-4.37,2.24-7.07,2.24-5.81,0-10.11-4.29-10.11-9.65s3.61-9.35,9.19-9.35c5.05,0,8.21,4.33,8.21,8.81,0,.61,0,1.03-.19,1.6l-.3,.19h-12.42c.53,2.77,2.7,4.41,5.62,4.41,2.32,0,4.83-.91,6.88-2.74l.19,.19v4.29Zm-4.22-9.5c-.19-1.79-1.82-3.27-3.76-3.27-2.51,0-3.99,1.48-4.56,3.27h8.32Z"/><path d="M129.2,4.18l.19,.23v4.33h6.84l.19,.19v4.07l-.19,.19h-6.84v5.7c0,3.04,1.33,4.03,2.85,4.03,1.06,0,2.51-.27,3.99-1.33l.19,.19v4.25c-1.03,.61-2.96,1.14-4.18,1.14-4.83,0-7.29-2.96-7.29-7.9v-6.08h-3.04l-.19-.19v-4.07l.19-.19h3.04V4.37l.19-.19h4.07Z"/><g><polygon points="107.83 17.51 110.49 13.74 110.49 13.7 110.5 13.72 113.8 9.04 114.18 8.85 118.97 8.85 119.16 9.04 113.08 17.4 119.54 26.52 119.35 26.71 114.56 26.71 114.18 26.52 113.08 24.95 113.08 24.95 107.83 17.51"/><polygon class="cls-1" points="113.1 17.51 110.44 13.74 110.44 13.7 110.43 13.72 107.13 9.04 106.75 8.85 101.96 8.85 101.77 9.04 107.85 17.4 101.39 26.52 101.58 26.71 106.37 26.71 106.75 26.52 107.85 24.95 107.85 24.95 113.1 17.51"/><polygon class="cls-1" points="104.91 17.51 102.25 13.74 102.25 13.7 102.24 13.72 98.94 9.04 98.56 8.85 93.77 8.85 93.58 9.04 99.66 17.4 93.2 26.52 93.39 26.71 98.18 26.71 98.56 26.52 99.66 24.95 99.66 24.95 104.91 17.51"/></g></svg>