<?xml version="1.0" encoding="UTF-8"?><svg id="Logo_Light" xmlns="http://www.w3.org/2000/svg" viewBox="0 0 136.42 36"><defs><style>.cls-1{fill:#5d26e8;}.cls-2{fill:snow;}</style></defs><path class="cls-2" d="m4.22.33l.19.19v13.87c0,5.58,3.31,8.47,7.37,8.47s7.33-2.89,7.33-8.47V.52l.19-.19h4.07l.19.19v14.63c0,7.79-5.32,12.35-11.78,12.35S0,22.94,0,15.15V.52l.19-.19h4.03Z"/><path class="cls-2" d="m31.21,9.07l.19.19v.57c1.18-.76,2.85-1.33,4.56-1.33,5.32,0,9.35,4.22,9.35,9.5s-4.03,9.5-9.35,9.5c-1.71,0-3.38-.57-4.56-1.33v9.31l-.19.19h-4.03l-.19-.19V9.26l.19-.19h4.03Zm.19,12.12c1.25,1.48,2.77,2.05,4.41,2.05,2.85,0,4.98-2.24,4.98-5.24s-2.13-5.24-4.98-5.24c-1.63,0-3.15.76-4.41,2.05v6.38Z"/><path class="cls-2" d="m53.2.33l.38.19,14.63,19.07V.52l.19-.19h4.07l.19.19v26.22l-.19.19h-4.25l-.38-.19-14.63-19.07v19.07l-.19.19h-4.03l-.19-.19V.52l.19-.19h4.22Z"/><path class="cls-2" d="m92.31,25.26c-1.71,1.14-4.37,2.24-7.07,2.24-5.81,0-10.11-4.29-10.11-9.65s3.61-9.35,9.19-9.35c5.05,0,8.21,4.33,8.21,8.81,0,.61,0,1.03-.19,1.6l-.3.19h-12.42c.53,2.77,2.7,4.41,5.62,4.41,2.32,0,4.83-.91,6.88-2.74l.19.19v4.29Zm-4.22-9.5c-.19-1.79-1.82-3.27-3.76-3.27-2.51,0-3.99,1.48-4.56,3.27h8.32Z"/><path class="cls-2" d="m129.2,4.51l.19.23v4.33h6.84l.19.19v4.07l-.19.19h-6.84v5.7c0,3.04,1.33,4.03,2.85,4.03,1.06,0,2.51-.27,3.99-1.33l.19.19v4.25c-1.03.61-2.96,1.14-4.18,1.14-4.83,0-7.29-2.96-7.29-7.9v-6.08h-3.04l-.19-.19v-4.07l.19-.19h3.04v-4.37l.19-.19h4.07Z"/><polygon class="cls-2" points="107.83 17.84 110.49 14.07 110.49 14.03 110.5 14.04 113.8 9.37 114.18 9.18 118.97 9.18 119.16 9.37 113.08 17.73 119.54 26.85 119.35 27.04 114.56 27.04 114.18 26.85 113.08 25.28 113.08 25.28 107.83 17.84"/><polygon class="cls-1" points="113.1 17.84 110.44 14.07 110.44 14.03 110.43 14.04 107.13 9.37 106.75 9.18 101.96 9.18 101.77 9.37 107.85 17.73 101.39 26.85 101.58 27.04 106.37 27.04 106.75 26.85 107.85 25.28 107.85 25.28 113.1 17.84"/><polygon class="cls-1" points="104.91 17.84 102.25 14.07 102.25 14.03 102.24 14.04 98.94 9.37 98.56 9.18 93.77 9.18 93.58 9.37 99.66 17.73 93.2 26.85 93.39 27.04 98.18 27.04 98.56 26.85 99.66 25.28 99.66 25.28 104.91 17.84"/></svg>