<?xml version="1.0" encoding="UTF-8"?><svg id="Layer_1" xmlns="http://www.w3.org/2000/svg" viewBox="0 0 150 50"><defs><style>.cls-1{font-family:AzoSans-Medium, 'Azo Sans';font-size:31px;}.cls-1,.cls-2{fill:snow;}.cls-3{fill:#0071bc;}.cls-4{letter-spacing:-.02em;}</style></defs><path class="cls-3" d="M0,0H138c6.62,0,12,5.38,12,12V50H12c-6.62,0-12-5.38-12-12V0H0Z"/><g><text class="cls-1" transform="translate(44.55 36.67)"><tspan x="0" y="0">M</tspan><tspan class="cls-4" x="26.78" y="0">o</tspan><tspan x="45.01" y="0">vie</tspan></text><g><path class="cls-2" d="M26.33,37.5h-1.46c0-.11-.02-.23-.02-.34,0-1.4,0-2.8,0-4.2,0-.08,.03-.18-.05-.28-1.12,1.61-2.23,3.21-3.34,4.81h-1.85c1.1-1.59,2.21-3.18,3.31-4.77,.05-.07,.16-.13,.1-.23-.04-.07-.15-.04-.23-.04-1.7,0-3.39,0-5.09,0-.39,0-.39,0-.39-.39,0-3.65,0-7.29,0-10.94,0-.05,0-.1,0-.15-.02-.19,.06-.26,.25-.26,.37,0,.75,0,1.12,0,.06,0,.13,.03,.18-.06-.06-.07-.12-.15-.18-.22-1.68-2.06-1.4-5.08,.61-6.8,.73-.63,1.58-.98,2.52-1.15,.42,0,.84,0,1.27,0,0,0,.02,0,.02,0,1.77,.29,3.05,1.24,3.82,2.88,.08,.17,.14,.1,.23,.02,.83-.72,1.79-1.05,2.89-.97,2.27,.15,3.97,2.34,3.54,4.59-.1,.55-.3,1.06-.62,1.52-.1,.14-.09,.2,.1,.19,.19,0,.39,.01,.58,0,.22-.02,.28,.08,.28,.29,0,.6,0,1.2,0,1.81,0,.31,.02,.32,.32,.23,1.1-.33,2.21-.67,3.31-1,.36-.11,.36-.11,.36,.27,0,2.85,0,5.69,0,8.54,0,.38,0,.38-.36,.27-1.11-.34-2.22-.67-3.33-1.01-.29-.09-.3-.08-.3,.23,0,.53,0,1.06,0,1.59,0,.52,.12,.53-.52,.53-1.62,0-3.25,0-4.87,0-.1,0-.24-.05-.3,.05-.06,.11,.06,.19,.12,.27,.3,.44,.61,.88,.92,1.32,.78,1.13,1.56,2.26,2.34,3.39h-1.85c-1.1-1.58-2.19-3.17-3.29-4.75-.02-.02-.04-.06-.1-.02v.25c0,1.39,0,2.78,0,4.17,0,.11-.01,.23-.02,.34Zm-.71-6.56c2.14,0,4.29,0,6.43,0,.35,0,.35,0,.35-.33,0-2.67,0-5.34,0-8,0-.32-.02-.34-.33-.34-4.3,0-8.61,0-12.91,0-.32,0-.35,.03-.35,.35,0,2.66,0,5.32,0,7.98,0,.32,.02,.34,.35,.34,2.15,0,4.3,0,6.45,0Zm-6.54-13.59c0,1.85,1.52,3.38,3.36,3.38,1.84,0,3.38-1.53,3.37-3.38,0-1.84-1.52-3.38-3.36-3.37-2,.01-3.36,1.61-3.38,3.36Zm13.03,.99c0-1.32-1.06-2.4-2.37-2.41-1.32,0-2.42,1.09-2.42,2.4,0,1.3,1.09,2.39,2.39,2.4,1.31,0,2.39-1.08,2.39-2.39Zm4.26,8.24c0-.77,0-1.54,0-2.32,0-.2-.05-.26-.26-.19-.65,.21-1.3,.4-1.96,.59-.19,.05-.26,.14-.26,.34,0,1.06,0,2.11,0,3.17,0,.19,.06,.29,.25,.35,.64,.18,1.27,.38,1.91,.57,.29,.09,.31,.08,.31-.22,0-.76,0-1.53,0-2.29Z"/><path class="cls-2" d="M25.6,27.36c-.91,0-1.82,0-2.73,0-.33,0-.34-.01-.34-.35,0-.31,0-.62,0-.93,0-.18,.08-.26,.26-.26,1.88,0,3.75,0,5.63,0,.19,0,.26,.09,.26,.27,0,.33,0,.65,0,.98,0,.22-.08,.3-.3,.3-.93,0-1.85,0-2.78,0Z"/></g></g></svg>