<?xml version="1.0" encoding="UTF-8"?><svg id="Layer_1" xmlns="http://www.w3.org/2000/svg" viewBox="0 0 150 50"><defs><style>.cls-1{fill:#009245;}.cls-2{font-family:AzoSans-Medium, 'Azo Sans';font-size:31px;}.cls-2,.cls-3{fill:snow;}</style></defs><path class="cls-1" d="M0,0H138c6.62,0,12,5.38,12,12V50H12c-6.62,0-12-5.38-12-12V0H0Z"/><g><text class="cls-2" transform="translate(73.65 36.67)"><tspan x="0" y="0">TV</tspan></text><g><path class="cls-3" d="M33.03,34.61c0-7.32,0-14.65,0-21.97,.15,0,.3-.02,.46-.02,11.12,0,22.25,0,33.37,0,.1,0,.19,0,.29,0,.18-.01,.27,.07,.25,.25,0,.09,0,.17,0,.26,0,7,0,14,0,21,0,.09,0,.17,0,.26,.01,.18-.07,.26-.25,.25-.08,0-.15,0-.23,0-11.16,0-22.32,0-33.49,0-.13,0-.27-.01-.4-.02ZM50.23,14.04c-5.13,0-10.26,0-15.39,0q-.41,0-.41,.41c0,6.11,0,12.22,0,18.33q0,.43,.42,.43c10.23,0,20.47,0,30.7,0q.43,0,.43-.43c0-6.1,0-12.2,0-18.3q0-.45-.44-.45c-5.1,0-10.21,0-15.31,0Z"/><path class="cls-3" d="M50.18,35.96c3.19,0,6.37,0,9.56,0,.52,0,.82,.28,.8,.75-.02,.35-.27,.63-.63,.66-.1,0-.21,0-.31,0-6.28,0-12.55,0-18.83,0-.1,0-.19,0-.29,0-.39-.03-.66-.32-.66-.72,0-.38,.28-.67,.66-.69,.27-.01,.53,0,.8,0,2.97,0,5.93,0,8.9,0Z"/><path class="cls-3" d="M46.75,24.03c0-1.4,0-2.8,0-4.2,0-.58,.33-.78,.83-.49,2.43,1.4,4.85,2.81,7.27,4.21,.52,.3,.51,.69,0,.99-2.41,1.4-4.82,2.79-7.23,4.18-.55,.32-.88,.12-.88-.52,0-1.39,0-2.78,0-4.17Z"/></g></g></svg>